<svg width="6" height="6" viewBox="0 0 6 6" fill="none" xmlns="http://www.w3.org/2000/svg">
<path d="M4.94509 4.43021C4.7542 4.47584 4.55493 4.49999 4.35006 4.49999C2.94172 4.49999 1.80003 3.35831 1.80003 1.94998C1.80003 1.80494 1.81213 1.66272 1.8354 1.52429C1.82454 1.53474 1.81332 1.54435 1.80151 1.55332C1.71732 1.61723 1.61248 1.64095 1.40279 1.6884L1.21188 1.73159C0.473965 1.89855 0.105008 1.98203 0.0172268 2.2643C-0.0705544 2.54659 0.180978 2.84071 0.68404 3.42896L0.814188 3.58115C0.95714 3.74831 1.02862 3.83189 1.06077 3.9353C1.09293 4.03871 1.08212 4.15022 1.06051 4.37327L1.04084 4.57631C0.964778 5.36118 0.92675 5.75361 1.15656 5.92806C1.38637 6.10251 1.73183 5.94348 2.42274 5.62536L2.60149 5.54304C2.79781 5.45265 2.89597 5.40747 3.00004 5.40747C3.10411 5.40747 3.20228 5.45265 3.3986 5.54304L3.57734 5.62536C4.26825 5.94348 4.6137 6.10251 4.84354 5.92806C5.07334 5.75361 5.0353 5.36118 4.95925 4.57631L4.94509 4.43021Z" fill="white"/>
<path d="M2.14594 1.02252L2.04763 1.19888C1.93965 1.39259 1.88565 1.48944 1.80147 1.55335C1.81328 1.54438 1.8245 1.53477 1.83536 1.52432C1.8121 1.66276 1.79999 1.80497 1.79999 1.95001C1.79999 3.35834 2.94167 4.50002 4.35004 4.50002C4.55491 4.50002 4.75414 4.47587 4.94506 4.43024L4.93954 4.3733C4.91791 4.15025 4.90711 4.03874 4.93927 3.93533C4.97143 3.83192 5.04289 3.74834 5.18585 3.58118L5.31602 3.42899C5.81907 2.84074 6.07059 2.54659 5.98281 2.26433C5.89503 1.98206 5.52608 1.89858 4.78816 1.73162L4.59727 1.68842C4.38757 1.64098 4.28271 1.61726 4.19853 1.55335C4.11435 1.48944 4.06035 1.39259 3.95238 1.19888L3.85407 1.02252C3.47405 0.340838 3.28406 0 3.00002 0C2.71594 0 2.52595 0.340841 2.14594 1.02252Z" fill="white"/>
</svg>
